<?xml version="1.0" encoding="UTF-8" standalone="no"?>
<svg
   xmlns:dc="http://purl.org/dc/elements/1.1/"
   xmlns:cc="http://creativecommons.org/ns#"
   xmlns:rdf="http://www.w3.org/1999/02/22-rdf-syntax-ns#"
   xmlns:svg="http://www.w3.org/2000/svg"
   xmlns="http://www.w3.org/2000/svg"
   xmlns:sodipodi="http://sodipodi.sourceforge.net/DTD/sodipodi-0.dtd"
   xmlns:inkscape="http://www.inkscape.org/namespaces/inkscape"
   id="Layer_1"
   style="enable-background:new 0 0 74 74;"
   version="1.1"
   viewBox="0 0 74 74"
   xml:space="preserve"
   sodipodi:docname="notebook-icon-aligned-orignial.svg"
   inkscape:version="1.0.2 (e86c8708, 2021-01-15)"><metadata
     id="metadata77"><rdf:RDF><cc:Work
         rdf:about=""><dc:format>image/svg+xml</dc:format><dc:type
           rdf:resource="http://purl.org/dc/dcmitype/StillImage" /><dc:title></dc:title></cc:Work></rdf:RDF></metadata><defs
     id="defs75" /><sodipodi:namedview
     pagecolor="#ffffff"
     bordercolor="#666666"
     borderopacity="1"
     objecttolerance="10"
     gridtolerance="10"
     guidetolerance="10"
     inkscape:pageopacity="0"
     inkscape:pageshadow="2"
     inkscape:window-width="3265"
     inkscape:window-height="1315"
     id="namedview73"
     showgrid="false"
     inkscape:zoom="17.287706"
     inkscape:cx="37"
     inkscape:cy="26.292611"
     inkscape:window-x="0"
     inkscape:window-y="23"
     inkscape:window-maximized="0"
     inkscape:current-layer="g70" /><style
     type="text/css"
     id="style62">
	.st0{fill:#24292e;}
</style><g
     id="g70"><path
       class="st0"
       d="M 62,0 H 18 c -4.6,0 -8,3.4 -8,8 v 8 H 6 c -1.1,0 -2,0.9 -2,2 0,1.1 0.9,2 2,2 h 4 V 54 H 6 c -1.1,0 -2,0.9 -2,2 0,1.1 0.9,2 2,2 h 4 v 8 c 0,4.6 3.4,8 8,8 h 44 c 4.6,0 8,-3.4 8,-8 V 8 C 70,3.4 66.6,0 62,0 Z M 14,66 v -8 h 4 c 1.1,0 2,-0.9 2,-2 0,-1.1 -0.9,-2 -2,-2 H 14 V 20 h 4 c 1.1,0 2,-0.9 2,-2 0,-1.1 -0.9,-2 -2,-2 H 14 V 8 c 0,-2.4 1.6,-4 4,-4 h 6 v 66 h -6 c -2.4,0 -4,-1.6 -4,-4 z m 52,0 c 0,2.3 -1.6,4 -4,4 H 28 V 4 h 34 c 2.3,0 4,1.6 4,4 z"
       id="path64"
       sodipodi:nodetypes="ssscsssccssscssssssscsssccssscssccssssccsss" /><path
       class="st0"
       d="M 58,16 H 38 c -1.1,0 -2,0.9 -2,2 0,1.1 0.9,2 2,2 h 20 c 1.1,0 2,-0.9 2,-2 0,-1.1 -0.9,-2 -2,-2 z"
       id="path66"
       sodipodi:nodetypes="sssssss" /><path
       class="st0"
       d="M 58,26 H 38 c -1.1,0 -2,0.9 -2,2 0,1.1 0.9,2 2,2 h 20 c 1.1,0 2,-0.9 2,-2 0,-1.1 -0.9,-2 -2,-2 z"
       id="path68"
       sodipodi:nodetypes="sssssss" /></g></svg>
