<svg xmlns="http://www.w3.org/2000/svg" width="256" height="256" viewBox="0 0 67.733 67.733"><path fill="#333" stroke="#333" stroke-width="0.35" paint-order="stroke fill" d="M29.947 39.539c6.014-1.039 12.114-5.077 15.756-9.955-1.818-.373-4.788-.01-6.983.217-5.363 1.115-11.047 3.203-14.507 7.693-2.537 3.014 4.39 2.063 5.734 2.045m2.502 25.5c-3.116-.458-6.515-2.52-6.677-6.004-.294-2.241.907-6.936 3.964-5.179 2.735.497 1.591 3.068 1.609 4.634 4.71 1.889 9.942-.18 14.002-2.7 6.096-4.392 11.85-10.275 10.666-18.037-.348-2.217-1.922-5.31-4.805-6.563-.28-.122-.466.617-.778.814-4.472 7.232-12.153 12.497-20.57 13.75-3.673.29-8.146-.009-10.37-3.419-2.289-3.864.312-8.502 3.232-11.205 6.76-6.124 16.384-8.462 25.287-7.094 2.476-4.727.519-10.898-3.96-13.639-8.024-5.022-19.11-2.702-25.718 3.668-1.381 1.042-2.81 3.876.154 3.579 2.616.276 6.86-1.232 7.922 2.206.767 3.239-3.498 4.85-5.908 4.625-3.53-.048-7.625-2.477-8.233-6.364-.798-4.17 2.18-7.904 5.205-10.384 5.227-4.079 11.986-5.946 18.564-5.465 7.046.259 14.236 4.367 16.784 11.202 1.766 3.944 1.35 8.43.442 12.514 3.964 2.52 6.951 6.646 7.787 11.335.93 4.489-.174 9.22-1.956 13.36-4.113 8.33-13.287 13.556-22.703 14.428-1.312.018-2.632.055-3.94-.062"/><path fill="#1a1a1a" stroke="#1a1a1a" stroke-width="0.35" paint-order="stroke fill" d="M35.948 63.708c-2.364-.088-5.475-2.7-4.572-4.826 2.252 2.593 5.585 2.454 8.728 2.037 7.582-2.254 10.573-4.376 14.901-10.25 1.294-3.747 1.745-7.55 1.676-11.475-.21-3.225-2.212-6.46-5.374-7.68-1.566 1.731-2.78 4.013-4.642 5.624-4.728 4.752-11.155 8.194-18.024 8.67-2.974.445-6.525-.849-6.985-4.071-.446-4.026 3.02-7.141 6.166-9.2 6.661-4.051 15.307-6.19 22.908-3.429 5.587 1.93 9.446 7.423 9.348 13.141.073 9.486-6.704 16.623-15.538 20.146-2.263.852-6.166 1.671-8.592 1.313m-2.373-22.502c6.19-1.327 12.32-5.263 15.678-10.418-1.94-.656-4.994-1.214-7.206-1.018-6.236.537-12.646 2.6-17.188 6.917-1.448 1.16-1.771 2.354.28 3.688 2.616 1.193 5.623 1.425 8.436.831M49.16 24.368c1.405-3.428.685-7.346-1.752-10.326-3.539-4.35-9.72-6.217-15.218-5.795-5.63.58-11.518 2.962-15.283 7.13-1.87 1.713-.282 5.161 2.166 5.406 2.03.775 6.772-1.253 5.964 2.498-1.878 1.753-5.054 1.154-7.362.576-2.908-1.002-3.473-5.472-1.934-8.018 2.893-5.165 7.02-7.43 12.734-8.595 6.913-1.365 16.352.282 20.977 5.878 2.915 3.506 4.515 8.08 3.207 12.335 0 0-2.605-.865-3.5-1.09"/><path fill="#f2f2f2" d="M36.809 4.302q-.967-.012-1.933.1c.52.214 1.142.203 1.699.317 4.452.574 8.616 2.395 12.336 4.761C45.77 6.396 41.32 4.358 36.81 4.302m-14.286 15.1c-.945-.026-2.26.498-.579.884.373.051.826.137 1.156-.098.424-.56-.01-.772-.577-.787m21.647 5.765q-.94.022-1.868.137c.991.422 2.28.324 3.38.508 3.543.234 6.853 1.623 9.708 3.614.917.754 2.562 1.346.828-.021-3.223-2.932-7.671-4.34-12.048-4.238m-7.577 13.66c-1.425 0-3.499 1.31-5.22 1.38-.65.098-4.11.439-1.722.576 2.525.076 5.055-.723 7.217-1.938a2 2 0 0 0-.275-.018m-7.41 16.113c-.414-.008-.633.22.076.79.262.157.614.307.927.19.381-.568-.472-.97-1.004-.98m16.507 1.998c-1.962.355-4.06 2.12-6.34 2.313-.76.098-2.971.639-.995.542 2.722.036 5.297-1.205 7.335-2.855"/></svg>
