<svg xmlns="http://www.w3.org/2000/svg" width="256" height="256" viewBox="0 0 67.733 67.733"><circle cx="33.875" cy="33.875" r="33.875" fill="#fff"/><path fill="#333" stroke="#333" stroke-width="0.35" paint-order="stroke fill" d="M30.222 39.142c5.593-.966 11.266-4.72 14.653-9.257-1.69-.348-4.453-.01-6.495.201-4.987 1.037-10.273 2.979-13.49 7.154-2.36 2.803 4.082 1.919 5.332 1.902m2.327 23.716c-2.898-.427-6.059-2.343-6.21-5.584-.273-2.085.844-6.45 3.687-4.817 2.543.463 1.48 2.854 1.496 4.31 4.38 1.757 9.246-.168 13.022-2.512 5.67-4.084 11.02-9.555 9.92-16.774-.324-2.062-1.788-4.938-4.47-6.103-.26-.113-.433.573-.723.757-4.159 6.725-11.302 11.623-19.13 12.788-3.416.27-7.576-.009-9.644-3.18-2.129-3.594.29-7.907 3.006-10.42 6.286-5.696 15.237-7.87 23.517-6.598 2.303-4.397.482-10.135-3.684-12.684-7.462-4.671-17.772-2.514-23.917 3.41-1.285.97-2.613 3.606.143 3.329 2.433.257 6.38-1.145 7.367 2.052.714 3.012-3.253 4.51-5.494 4.3-3.283-.044-7.091-2.303-7.656-5.918-.742-3.878 2.027-7.35 4.84-9.657 4.861-3.793 11.147-5.53 17.265-5.082 6.553.24 13.24 4.061 15.609 10.418 1.642 3.667 1.256 7.839.411 11.638 3.687 2.343 6.465 6.181 7.242 10.542.865 4.174-.161 8.574-1.819 12.424-3.825 7.747-12.357 12.608-21.114 13.418-1.22.017-2.447.052-3.664-.057"/><path fill="#1a1a1a" stroke="#1a1a1a" stroke-width="0.35" paint-order="stroke fill" d="M35.803 61.62c-2.2-.082-5.092-2.512-4.253-4.489 2.096 2.412 5.195 2.283 8.118 1.895 7.05-2.097 9.833-4.07 13.858-9.533 1.203-3.485 1.623-7.02 1.559-10.67-.196-3-2.057-6.009-4.999-7.144-1.456 1.61-2.585 3.732-4.317 5.231-4.396 4.419-10.373 7.62-16.761 8.063-2.767.414-6.069-.79-6.497-3.787-.414-3.743 2.808-6.64 5.735-8.556 6.195-3.767 14.235-5.755 21.304-3.188 5.196 1.795 8.785 6.903 8.694 12.221.068 8.821-6.235 15.46-14.451 18.735-2.104.793-5.734 1.555-7.99 1.222m-2.207-20.927c5.757-1.234 11.458-4.895 14.58-9.69-1.803-.61-4.644-1.128-6.701-.946-5.8.5-11.76 2.42-15.985 6.433-1.346 1.08-1.647 2.19.26 3.43 2.433 1.109 5.23 1.325 7.846.773m14.495-15.66c1.307-3.187.637-6.831-1.63-9.602-3.29-4.046-9.038-5.783-14.152-5.39-5.236.54-10.711 2.754-14.214 6.631-1.739 1.593-.262 4.8 2.016 5.028 1.887.72 6.297-1.166 5.546 2.323-1.747 1.63-4.701 1.073-6.847.535-2.705-.932-3.23-5.089-1.798-7.456 2.69-4.804 6.528-6.91 11.842-7.994 6.429-1.27 15.207.262 19.509 5.466 2.71 3.261 4.199 7.515 2.982 11.473 0 0-2.422-.805-3.254-1.014"/><path fill="#f2f2f2" d="M36.604 6.372q-.9-.011-1.798.094c.483.198 1.062.188 1.58.294 4.14.534 8.013 2.228 11.473 4.428-2.923-2.868-7.061-4.764-11.255-4.816M23.317 20.414c-.879-.023-2.1.464-.538.823.348.048.769.127 1.075-.091.395-.52-.01-.718-.537-.732m20.132 5.363q-.873.02-1.737.127c.922.392 2.12.301 3.144.472 3.295.218 6.373 1.51 9.028 3.361.853.701 2.382 1.252.77-.02-2.998-2.726-7.134-4.036-11.205-3.94M36.402 38.48c-1.324 0-3.253 1.218-4.853 1.284-.606.09-3.823.408-1.603.536 2.35.07 4.702-.673 6.713-1.803a2 2 0 0 0-.257-.017m-6.891 14.986c-.385-.008-.588.205.071.735.244.145.57.285.862.177.355-.53-.439-.903-.933-.912m15.352 1.857c-1.824.33-3.776 1.973-5.896 2.152-.707.09-2.764.594-.926.504 2.532.033 4.927-1.12 6.822-2.656"/></svg>
